<svg xmlns="http://www.w3.org/2000/svg" xmlns:xlink="http://www.w3.org/1999/xlink" width="536" height="180" viewBox="0 0 536 180"><defs><style>.a{clip-path:url(#b);}.b{fill:#fff;}.c{fill:#19d600;}.d{fill:none;}.e{fill:#141414;}</style><clipPath id="b"><rect width="536" height="180"/></clipPath></defs><g id="a" class="a"><path class="b" d="M53.58-76.608a4.106,4.106,0,0,0,4.446-4.1,4.106,4.106,0,0,0-4.446-4.1L39.444-84.7l.114-5.358c0-2.85-2.736-4.218-5.586-4.218-2.736,0-5.472,1.368-5.472,4.218l.114,5.358-14.82-.114a4.106,4.106,0,0,0-4.446,4.1,4.106,4.106,0,0,0,4.446,4.1ZM101.346,5.016A4.369,4.369,0,0,0,106.02.57a4.369,4.369,0,0,0-4.674-4.446l-39.33.114v-5.13l26.9.114a4.346,4.346,0,0,0,4.674-4.332,4.327,4.327,0,0,0-4.674-4.218l-26.9.114V-17.9c0-3.192-2.508-4.674-5.13-4.788,2.166-.684,10.032-6.954,15.5-18.354a26.034,26.034,0,0,1,3.078,4.446,3.755,3.755,0,0,0,3.306,2.166A5.677,5.677,0,0,0,84.018-39.9c0-2.508-3.534-6.612-7.98-10.944a85.93,85.93,0,0,0,2.736-18.012c1.254,0,2.508.114,3.42.114,3.192.114,4.1,1.938,4.1,5.358,0,4.674-.456,10.146-.456,15.96,0,27.7,9.348,29.868,12.768,29.868,9.234,0,12.54-14.136,12.54-17.556a5.541,5.541,0,0,0-5.472-5.472c-2.052,0-3.99,1.368-4.332,4.788-.342,4.218-1.254,6.612-2.166,6.612s-3.648-5.13-3.648-18.354c0-6.5.684-13.11.912-18.126v-.8c0-7.068-4.446-10.944-12.084-11.172-1.6,0-3.306-.114-5.244-.114V-89.376c0-3.078-2.622-4.56-5.244-4.56-2.508,0-5.13,1.482-5.13,4.56,0,3.99.228,7.866.342,11.628h-7.3a4.455,4.455,0,0,0-4.674,4.56,4.272,4.272,0,0,0,4.56,4.446h.114c2.166,0,4.788-.114,7.41-.114a72.69,72.69,0,0,1-1.026,11.172c-2.736-2.28-4.446-2.394-5.016-2.394a4.459,4.459,0,0,0-4.674,4.1,3.9,3.9,0,0,0,1.71,2.964,60.31,60.31,0,0,1,5.358,4.56C62.928-42.18,58.6-36.138,51.3-30.438A4.678,4.678,0,0,0,49.362-26.9c0,2.394,2.28,4.56,5.13,4.674A4.4,4.4,0,0,0,51.528-17.9v.684l-26.22-.114a4.327,4.327,0,0,0-4.674,4.218,4.347,4.347,0,0,0,4.674,4.332l26.22-.114v5.13l-38.19-.114A4.4,4.4,0,0,0,8.55.57a4.465,4.465,0,0,0,4.788,4.446ZM53.352-65.436c0-4.56-.228-7.866-7.866-8.094-3.99-.114-7.752-.114-11.4-.114-17.67,0-19.608,0-19.608,8.208,0,6.612,1.026,7.752,18.81,7.752C50.388-57.684,53.352-57.8,53.352-65.436ZM40.242-40.584C50.73-45.6,51.528-47.994,51.528-50.16c0-2.28-1.824-4.332-6.384-4.446-4.446-.114-11.058-.228-17.1-.228-4.218,0-8.322.114-11.058.114a3.316,3.316,0,0,0-3.534,3.42,3.315,3.315,0,0,0,3.42,3.534H17.1c5.7-.228,15.048-.342,21.09-.456.684,0,1.026.228,1.026.57s-.114.684-5.244,2.964a9.391,9.391,0,0,0-3.306-.8c-2.622,0-4.332,1.824-4.332,3.648a2.417,2.417,0,0,0,1.14,2.052c-4.56.228-9.348.228-13.908.228-3.192,0-4.788,1.938-4.788,3.876,0,2.052,1.6,4.1,4.9,4.1,4.1,0,18.24-1.026,20.178-1.14A5.806,5.806,0,0,1,27.7-27.246a12.012,12.012,0,0,1-4.218-.684A7.845,7.845,0,0,0,22-28.158a3.849,3.849,0,0,0-3.99,3.762c0,4.218,6.612,4.788,9.348,4.788,6.27,0,14.82-2.736,14.82-13.11V-33.4c4.218-.456,8.094-.912,11.4-1.368,2.736-.456,3.876-2.052,3.876-3.762a3.555,3.555,0,0,0-3.876-3.42H52.9C49.362-41.5,45.03-40.926,40.242-40.584Zm4.332-25.194c0,2.508-.228,2.508-11.172,2.508-9.918,0-9.918-.228-9.918-2.85,0-1.368.456-1.824,2.28-1.824,2.964-.114,5.586-.114,8.208-.114,2.736,0,5.358,0,8.094.114C43.89-67.944,44.574-67.374,44.574-65.778ZM174.648-64.3c1.254-2.85.342-6.954-3.99-9.006-9.462-4.56-19.95-6.156-26.448-7.068-9.006-1.368-12.084,9.69-4.1,10.716,7.752,1.026,18.582,3.99,26.22,7.98C170.088-59.736,173.394-61.446,174.648-64.3Zm-6.84,25.536a6.57,6.57,0,0,0-2.85-9.006c-6.156-3.306-16.416-6.156-22.458-7.068-7.41-1.14-11.286,9.348-2.394,11.058,6.042,1.14,13.452,3.534,18.924,6.954C162.906-34.428,166.326-36.024,167.808-38.76ZM179.436.228a7.711,7.711,0,0,0-1.14-10.374C168.264-18.468,149.91-24.852,140.9-27.36s-12.084,8.094-5.13,10.716c4.788,1.824,10.26,3.762,16.074,6.5A85.45,85.45,0,0,1,170.088,1.14,6.375,6.375,0,0,0,179.436.228Zm117.42-46.4c3.99-7.068-6.27-13.338-10.374-5.7-6.612,12.312-15.618,22.914-25.422,28.5-2.166,1.254-3.534,1.026-3.42-1.482.114-3.876,1.254-33.972,1.368-38.418.114-8.208-11.4-8.322-11.4,0,0,6.726-.8,33.858-1.6,44.118-.8,9.8,7.3,12.768,14.706,9.12C276.222-17.9,288.99-32.034,296.856-46.17Zm-89.6,41.952C229.6-16.644,239.4-40.356,238.6-61.9c-.228-7.3-12.2-7.866-11.742.912,1.026,21.774-9.12,39.33-25.992,46.854C192.2-10.26,198.474.684,207.252-4.218Z" transform="translate(208 135)"/><path class="b" d="M12.307,11.024C25.294-.434,36,0,53,0h74c17,0,29.815-.581,41.91,11.914S180,36,180,57v70c0,17,1.874,28.326-11.376,41.576S144,180,127,180H53c-17,0-28.451,1.883-41.7-11.367S0,144,0,127V53C0,36-.68,22.481,12.307,11.024Z"/><path class="c" d="M-1460.768-2767.686a21.434,21.434,0,0,1-6.835-4.608,21.407,21.407,0,0,1-4.607-6.834,21.36,21.36,0,0,1-1.689-8.369,21.359,21.359,0,0,1,1.689-8.368,21.429,21.429,0,0,1,4.607-6.834,21.425,21.425,0,0,1,6.835-4.607,21.362,21.362,0,0,1,8.368-1.69,21.363,21.363,0,0,1,8.369,1.69,21.429,21.429,0,0,1,6.834,4.607,21.419,21.419,0,0,1,4.608,6.834,21.361,21.361,0,0,1,1.689,8.368,21.362,21.362,0,0,1-1.689,8.369,21.433,21.433,0,0,1-4.608,6.834,21.427,21.427,0,0,1-6.834,4.608A21.358,21.358,0,0,1-1452.4-2766,21.357,21.357,0,0,1-1460.768-2767.686Zm-2.131-19.811a10.511,10.511,0,0,0,10.5,10.5,10.512,10.512,0,0,0,10.5-10.5,10.512,10.512,0,0,0-10.5-10.5A10.511,10.511,0,0,0-1462.9-2787.5Z" transform="translate(1513.899 2906.996)"/><rect class="d" width="204.5" height="206.5" transform="translate(-13 -15)"/><path class="e" d="M11.362-83.189c.13,0,1.233-.011,1.363-.011,1.421,0,11.44-.13,16.92-.13,2.535.075,2.851.651,2.985,2.282.012,8.5,0,16.7,0,24.758,0,9.36-.13,18.98-.39,29.51-.26,9.1-5.59,13.91-13.52,13.91a22.766,22.766,0,0,1-6.89-1.04,10.711,10.711,0,0,0-3.38-.52A6.75,6.75,0,0,0,1.43-7.41c0,7.8,8.58,9.36,17.03,9.36,15.34,0,28.08-9.1,28.08-26.91v-.91c-.13-10.14-.26-19.37-.26-28.34s.13-17.55.26-26.13c.13-2.47,1.17-2.86,2.86-2.86h1.82c4.81,0,7.41-3.51,7.41-6.89,0-3.51-2.47-6.89-7.67-6.89H50.7c-3.51.13-8.45.26-13.13.26-3.77,0-25.61-.13-28.34-.26H8.58a6.755,6.755,0,0,0-7.15,6.89c0,5.98,5.85,7.02,7.8,6.89Z" transform="translate(79 138)"/></g></svg>